<svg width="81" height="72" viewBox="0 0 81 72" fill="none" xmlns="http://www.w3.org/2000/svg">
<g id="001-www">
<path id="Shape" fill-rule="evenodd" clip-rule="evenodd" d="M34.8242 40.1569C34.8242 32.5454 41.0166 26.353 48.6281 26.353C56.2397 26.353 62.4321 32.5454 62.4321 40.1569C62.4321 47.7684 56.2397 53.9608 48.6281 53.9608C41.0166 53.9608 34.8242 47.7684 34.8242 40.1569ZM37.9615 40.1569C37.9615 46.0387 42.7464 50.8236 48.6281 50.8236C54.5099 50.8236 59.2948 46.0387 59.2948 40.1569C59.2948 34.2752 54.5099 29.4903 48.6281 29.4903C42.7464 29.4903 37.9615 34.2752 37.9615 40.1569Z" fill="black"/>
<path id="Path" d="M48.6282 33.0987C47.7618 33.0987 47.0596 33.8009 47.0596 34.6674C47.0596 35.5338 47.7618 36.236 48.6282 36.236C50.79 36.236 52.5492 37.9952 52.5492 40.1569C52.5492 41.0234 53.2514 41.7256 54.1178 41.7256C54.9842 41.7256 55.6864 41.0234 55.6864 40.1569C55.6864 36.2648 52.5204 33.0987 48.6282 33.0987Z" fill="black"/>
<path id="Path_2" d="M9.66958 11.8279C9.2713 11.0589 8.32522 10.758 7.55561 11.1557C6.786 11.554 6.48514 12.5007 6.88343 13.2703L11.1059 21.4271C11.3791 21.9553 11.9318 22.2782 12.5225 22.2746C13.1169 22.2654 13.6555 21.921 13.9128 21.3849L16.4692 16.0626L19.2456 21.4271C19.5158 21.948 20.0532 22.2746 20.6389 22.2746H20.6622C21.2572 22.2654 21.7952 21.921 22.0532 21.3849L25.9704 13.228C26.3454 12.4474 26.0164 11.5099 25.2358 11.1349C24.4545 10.7599 23.5176 11.0889 23.1426 11.8702L20.5862 17.1925L17.8093 11.8279C17.536 11.2997 16.9845 10.9755 16.3932 10.9804C15.7983 10.9896 15.2597 11.334 15.0023 11.8702L12.4465 17.1925L9.66958 11.8279Z" fill="black"/>
<path id="Path_3" d="M19.763 3.13732C20.176 3.13732 20.5804 2.96942 20.872 2.67776C21.1643 2.38609 21.3316 1.98107 21.3316 1.56869C21.3316 1.15631 21.1643 0.751286 20.872 0.45962C20.5804 0.167953 20.176 6.10352e-05 19.763 6.10352e-05C19.3506 6.10352e-05 18.9462 0.167953 18.6545 0.45962C18.3622 0.751286 18.1943 1.15631 18.1943 1.56869C18.1943 1.98107 18.3622 2.38609 18.6545 2.67776C18.9462 2.96942 19.3506 3.13732 19.763 3.13732Z" fill="black"/>
<path id="Shape_2" fill-rule="evenodd" clip-rule="evenodd" d="M80.3137 6.27457V26.9805C80.3137 30.44 77.4994 33.255 74.0392 33.255H67.8168C68.595 35.4118 69.0202 37.7354 69.0202 40.1569C69.0202 46.5638 66.0496 52.2887 61.4148 56.0295L73.4522 68.0675C74.3027 68.918 75.6869 68.918 76.5374 68.0675C77.3879 67.2164 77.3879 65.8322 76.5374 64.9817L71.6458 60.0895C71.0331 59.4768 71.0331 58.4841 71.6458 57.8714C72.258 57.2586 73.2512 57.2593 73.864 57.8714L78.7555 62.7629C80.8297 64.8371 80.8297 68.2115 78.7555 70.2856C77.7188 71.3224 76.3566 71.8407 74.9945 71.8407C73.6324 71.8407 72.2702 71.3224 71.2335 70.2856L58.7837 57.8358C55.7917 59.5613 52.3229 60.5491 48.6281 60.5491C37.3836 60.5491 28.2359 51.4014 28.2359 40.1569C28.2359 37.7354 28.6612 35.4118 29.4393 33.255H6.27451C2.81495 33.255 0 30.4406 0 26.9805V6.27457C0 2.81501 2.81495 6.10352e-05 6.27451 6.10352e-05H12.7047C13.5711 6.10352e-05 14.2733 0.702267 14.2733 1.56869C14.2733 2.43511 13.5711 3.13732 12.7047 3.13732H6.27451C4.54473 3.13732 3.13725 4.54479 3.13725 6.27457V26.9805C3.13725 28.7102 4.54473 30.1177 6.27451 30.1177H30.8842C32.9718 26.4425 36.1679 23.4768 40.0147 21.6765C39.9528 21.5987 39.8958 21.5172 39.8493 21.4271L37.0729 16.0632L34.5165 21.3849C34.2592 21.921 33.7206 22.2654 33.1262 22.2746C32.5331 22.2782 31.9828 21.9553 31.7096 21.4271L27.4871 13.2703C27.0888 12.5007 27.3897 11.5546 28.1593 11.1563C28.9289 10.758 29.875 11.0589 30.2733 11.8279L33.0502 17.1925L35.606 11.8702C35.8634 11.334 36.402 10.9896 36.9963 10.9811C37.5913 10.9756 38.1397 11.2997 38.413 11.8279L41.19 17.1925L43.7463 11.8702C44.1207 11.0889 45.0582 10.7599 45.8388 11.1355C46.6201 11.5105 46.9491 12.4474 46.5741 13.228L43.0637 20.5368C44.8333 20.0344 46.7004 19.7648 48.6287 19.7648C49.6244 19.7648 50.6036 19.8383 51.5613 19.9768L48.0895 13.2703C47.6918 12.5007 47.992 11.5546 48.7616 11.1563C49.5312 10.758 50.4779 11.0589 50.8762 11.8279L53.6526 17.1925L56.2089 11.8702C56.4663 11.334 57.0043 10.9896 57.5993 10.9811C58.1918 10.9756 58.7426 11.2997 59.0159 11.8279L61.7929 17.1925L64.3487 11.8702C64.7237 11.0889 65.6611 10.7599 66.4418 11.1355C67.2224 11.5105 67.5515 12.4474 67.1765 13.228L63.2592 21.3849C63.0018 21.921 62.4632 22.2654 61.8689 22.2746H61.845C61.2592 22.2746 60.7218 21.9486 60.4522 21.4271L57.6752 16.0632L55.3499 20.9045C60.0417 22.5472 63.9553 25.8585 66.3762 30.1244C66.4203 30.1208 66.4645 30.1177 66.5098 30.1177H74.0392C75.769 30.1177 77.1765 28.7102 77.1765 26.9805V6.27457C77.1765 4.54479 75.769 3.13732 74.0392 3.13732H26.3511C25.4853 3.13732 24.7825 2.43511 24.7825 1.56869C24.7825 0.702267 25.4853 6.10352e-05 26.3511 6.10352e-05H74.0392C77.4988 6.10352e-05 80.3137 2.81501 80.3137 6.27457ZM31.3732 40.1569C31.3732 49.671 39.114 57.4118 48.6281 57.4118C58.1428 57.4118 65.883 49.671 65.883 40.1569C65.883 30.6428 58.1422 22.902 48.6281 22.902C39.114 22.902 31.3732 30.6428 31.3732 40.1569Z" fill="black"/>
<path id="Path_4" d="M67.9244 54.1508C67.6327 54.4425 67.4648 54.8469 67.4648 55.2599C67.4648 55.6723 67.6327 56.0767 67.9244 56.3689C68.2179 56.6606 68.6211 56.8285 69.0335 56.8285C69.4458 56.8285 69.8509 56.6606 70.1425 56.3689C70.436 56.0767 70.6021 55.6723 70.6021 55.2599C70.6021 54.8469 70.436 54.4425 70.1425 54.1508C69.8509 53.8591 69.4477 53.6913 69.0335 53.6913C68.6211 53.6913 68.2161 53.8591 67.9244 54.1508Z" fill="black"/>
</g>
</svg>
