<svg width="71" height="72" viewBox="0 0 71 72" fill="none" xmlns="http://www.w3.org/2000/svg">
<path fill-rule="evenodd" clip-rule="evenodd" d="M38.9508 62.5574H41.3115C41.9634 62.5574 42.4918 63.0859 42.4918 63.7378V66.0984C42.4918 69.3578 39.8495 72 36.5902 72H5.90164C2.64225 72 0 69.3578 0 66.0984V63.7378C0 63.0859 0.528451 62.5574 1.18033 62.5574H3.54098V37.7705C3.54098 37.1187 4.06943 36.5902 4.72131 36.5902H15.722C16.3738 36.5902 16.9023 37.1187 16.9023 37.7705C16.9023 38.4224 16.3738 38.9509 15.722 38.9509H5.90164V62.5574H36.5902V50.9902C36.5902 50.3383 37.1186 49.8099 37.7705 49.8099C38.4224 49.8099 38.9508 50.3383 38.9508 50.9902V62.5574ZM36.5902 69.6394C38.5458 69.6394 40.1311 68.054 40.1311 66.0984V64.9181H2.36066V66.0984C2.36066 68.054 3.94601 69.6394 5.90164 69.6394H8.26229V68.4591C8.26229 67.8072 8.79075 67.2787 9.44262 67.2787C10.0945 67.2787 10.623 67.8072 10.623 68.4591V69.6394H31.8689V68.4591C31.8689 67.8072 32.3973 67.2787 33.0492 67.2787C33.7011 67.2787 34.2295 67.8072 34.2295 68.4591V69.6394H36.5902Z" fill="black"/>
<path d="M61.3771 8.26227H63.7378C64.3896 8.26227 64.9181 7.73382 64.9181 7.08194C64.9181 6.43006 64.3896 5.90161 63.7378 5.90161H61.3771C59.4215 5.90161 57.8361 7.48696 57.8361 9.4426V10.6229H56.6558C56.0039 10.6229 55.4755 11.1514 55.4755 11.8033C55.4755 12.4551 56.0039 12.9836 56.6558 12.9836H57.8361V16.5246C57.8361 17.1764 58.3646 17.7049 59.0164 17.7049C59.6683 17.7049 60.1968 17.1764 60.1968 16.5246V12.9836H61.3771C62.029 12.9836 62.5574 12.4551 62.5574 11.8033C62.5574 11.1514 62.029 10.6229 61.3771 10.6229H60.1968V9.4426C60.1968 8.79072 60.7252 8.26227 61.3771 8.26227Z" fill="black"/>
<path d="M67.2786 1.1803H53.1147C51.1591 1.1803 49.5737 2.76565 49.5737 4.72128V7.08194C49.5737 7.73381 50.1022 8.26227 50.7541 8.26227C51.4059 8.26227 51.9344 7.73381 51.9344 7.08194V4.72128C51.9344 4.0694 52.4628 3.54095 53.1147 3.54095H67.2786C67.9305 3.54095 68.459 4.0694 68.459 4.72128V18.8852C68.459 19.5371 67.9305 20.0655 67.2786 20.0655H53.1147C52.4628 20.0655 51.9344 19.5371 51.9344 18.8852V11.8032C51.9344 11.1514 51.4059 10.6229 50.7541 10.6229C50.1022 10.6229 49.5737 11.1514 49.5737 11.8032V18.8852C49.5737 20.8408 51.1591 22.4262 53.1147 22.4262H67.2786C69.2343 22.4262 70.8196 20.8408 70.8196 18.8852V4.72128C70.8196 2.76565 69.2343 1.1803 67.2786 1.1803V1.1803Z" fill="black"/>
<path fill-rule="evenodd" clip-rule="evenodd" d="M60.1968 53.1147C57.5893 53.1147 55.4755 51.0009 55.4755 48.3934C55.4755 45.7859 57.5893 43.6721 60.1968 43.6721C62.8043 43.6721 64.9181 45.7859 64.9181 48.3934C64.9181 51.0009 62.8043 53.1147 60.1968 53.1147ZM60.1968 50.7541C61.5005 50.7541 62.5574 49.6972 62.5574 48.3934C62.5574 47.0897 61.5005 46.0328 60.1968 46.0328C58.893 46.0328 57.8361 47.0897 57.8361 48.3934C57.8361 49.6972 58.893 50.7541 60.1968 50.7541Z" fill="black"/>
<path d="M67.2786 37.7705H53.1147C51.1591 37.7705 49.5737 39.3559 49.5737 41.3115V55.4754C49.5737 57.4311 51.1591 59.0164 53.1147 59.0164H67.2786C69.2343 59.0164 70.8196 57.4311 70.8196 55.4754V53.1148C70.8196 52.4629 70.2912 51.9344 69.6393 51.9344C68.9874 51.9344 68.459 52.4629 68.459 53.1148V55.4754C68.459 56.1273 67.9305 56.6558 67.2786 56.6558H53.1147C52.4628 56.6558 51.9344 56.1273 51.9344 55.4754V41.3115C51.9344 40.6596 52.4628 40.1312 53.1147 40.1312H67.2786C67.9305 40.1312 68.459 40.6596 68.459 41.3115V48.3935C68.459 49.0453 68.9874 49.5738 69.6393 49.5738C70.2912 49.5738 70.8196 49.0453 70.8196 48.3935V41.3115C70.8196 39.3559 69.2343 37.7705 67.2786 37.7705Z" fill="black"/>
<path fill-rule="evenodd" clip-rule="evenodd" d="M27.1475 15.3442C26.9265 15.3449 26.7098 15.2836 26.5219 15.1672C26.1761 14.951 25.9664 14.5717 25.9672 14.1639V7.08191C25.9684 6.67281 26.1814 6.29353 26.53 6.07953C26.8787 5.86553 27.3133 5.84732 27.6786 6.03142L34.7606 9.5724C35.1548 9.77435 35.4028 10.18 35.4028 10.6229C35.4028 11.0658 35.1548 11.4714 34.7606 11.6734L27.6786 15.2144C27.5142 15.2986 27.3323 15.3431 27.1475 15.3442ZM31.5855 10.6229L28.3278 8.99404V12.2517L31.5855 10.6229Z" fill="black"/>
<path fill-rule="evenodd" clip-rule="evenodd" d="M40.1312 10.623C40.1312 16.4898 35.3751 21.2459 29.5082 21.2459C23.6413 21.2459 18.8853 16.4898 18.8853 10.623C18.8853 4.75606 23.6413 0 29.5082 0C35.3751 0 40.1312 4.75606 40.1312 10.623ZM37.7705 10.623C37.7705 6.05981 34.0713 2.36066 29.5082 2.36066C24.9451 2.36066 21.2459 6.05981 21.2459 10.623C21.2459 15.1861 24.9451 18.8852 29.5082 18.8852C34.0713 18.8852 37.7705 15.1861 37.7705 10.623Z" fill="black"/>
<path d="M41.3115 25.9672C41.683 25.9672 42.0329 25.7923 42.2558 25.495L45.7967 20.7737C46.1879 20.2522 46.0822 19.5124 45.5607 19.1213C45.0392 18.7301 44.2993 18.8358 43.9082 19.3573L40.3672 24.0786C39.9761 24.6001 40.0818 25.34 40.6033 25.7311C40.8076 25.8843 41.0561 25.9672 41.3115 25.9672Z" fill="black"/>
<path d="M43.9083 30.2164C44.1312 30.5137 44.481 30.6886 44.8525 30.6886C45.1079 30.6886 45.3564 30.6057 45.5607 30.4525L50.282 26.9115C50.8035 26.5204 50.9092 25.7806 50.5181 25.2591C50.127 24.7376 49.3871 24.6319 48.8656 25.023L44.1443 28.564C43.6228 28.9551 43.5171 29.6949 43.9083 30.2164Z" fill="black"/>
<path d="M55.4754 32.8131C55.4187 32.4969 55.2356 32.2175 54.9683 32.0393C54.7011 31.8611 54.3727 31.7996 54.059 31.8689L48.1574 33.0492C47.5055 33.1144 47.0299 33.6957 47.0951 34.3475C47.1603 34.9994 47.7416 35.475 48.3934 35.4098H48.6295L54.5312 34.2295C54.8473 34.1728 55.1268 33.9897 55.305 33.7224C55.4832 33.4551 55.5447 33.1268 55.4754 32.8131Z" fill="black"/>
<path fill-rule="evenodd" clip-rule="evenodd" d="M15.3443 33.0491H1.18033C0.528451 33.0491 0 32.5207 0 31.8688V12.9836C0 12.3317 0.528451 11.8032 1.18033 11.8032H15.3443C15.9961 11.8032 16.5246 12.3317 16.5246 12.9836V31.8688C16.5246 32.5207 15.9961 33.0491 15.3443 33.0491ZM14.1639 14.1639H2.36066V30.6885H14.1639V14.1639Z" fill="black"/>
<path d="M10.6229 16.5245H8.26224C7.61036 16.5245 7.08191 17.053 7.08191 17.7049C7.08191 18.3567 7.61036 18.8852 8.26224 18.8852H10.6229C11.2748 18.8852 11.8032 18.3567 11.8032 17.7049C11.8032 17.053 11.2748 16.5245 10.6229 16.5245Z" fill="black"/>
<path d="M10.623 21.2458H5.90164C5.24976 21.2458 4.72131 21.7743 4.72131 22.4262C4.72131 23.0781 5.24976 23.6065 5.90164 23.6065H10.623C11.2748 23.6065 11.8033 23.0781 11.8033 22.4262C11.8033 21.7743 11.2748 21.2458 10.623 21.2458Z" fill="black"/>
<path d="M10.623 25.9672H5.90164C5.24976 25.9672 4.72131 26.4956 4.72131 27.1475C4.72131 27.7994 5.24976 28.3278 5.90164 28.3278H10.623C11.2748 28.3278 11.8033 27.7994 11.8033 27.1475C11.8033 26.4956 11.2748 25.9672 10.623 25.9672Z" fill="black"/>
<path fill-rule="evenodd" clip-rule="evenodd" d="M40.2728 32.695C40.0619 32.3282 39.6714 32.1016 39.2482 32.1008C38.8251 32.1 38.4336 32.3249 38.2213 32.691C38.009 33.057 38.0081 33.5085 38.219 33.8754L43.4242 42.8813L24.539 49.9632H24.4564H24.3619L21.2931 51.7337L19.2511 52.914C18.7082 53.2279 18.0627 53.3129 17.457 53.1501C16.8546 52.9874 16.3411 52.5927 16.0288 52.0524L13.6682 47.9685C13.0916 46.8592 13.4798 45.4928 14.5534 44.8524L18.6374 42.4918L21.5882 47.6026C21.7999 47.9692 22.1917 48.1944 22.6151 48.1927C23.0376 48.1944 23.4288 47.9701 23.6408 47.6046C23.8528 47.2391 23.8532 46.7882 23.6419 46.4222L20.5967 41.158L35.4098 28.9416L35.8937 29.7796C36.2197 30.3468 36.9437 30.5423 37.5108 30.2163C38.0779 29.8904 38.2735 29.1664 37.9475 28.5993L36.7672 26.5573C36.5921 26.258 36.2943 26.0508 35.9528 25.9908C35.6094 25.926 35.2549 26.0168 34.9849 26.2386L18.4603 39.8596L13.4321 42.7632C11.5763 43.8441 10.6839 46.0413 11.2603 48.1101L10.08 48.7829C8.83622 49.4971 8.14614 50.8911 8.33231 52.3132C8.51848 53.7353 9.54411 54.9047 10.9298 55.2747C11.2302 55.3543 11.5397 55.394 11.8505 55.3927C12.4714 55.3902 13.0812 55.2276 13.621 54.9206L14.8013 54.2478C15.3683 54.8335 16.0814 55.2573 16.8669 55.4754C17.2702 55.5882 17.6874 55.6438 18.1062 55.6406C18.9359 55.6425 19.7509 55.4225 20.4669 55.0032L21.4937 54.4131L23.8544 58.5088C24.8312 60.1975 26.9899 60.7781 28.6819 59.8072C29.4963 59.338 30.0906 58.5643 30.3342 57.6566C30.5777 56.7489 30.4504 55.7816 29.9803 54.9678L27.8321 51.2262L45.537 44.5809C45.862 44.4588 46.1167 44.1997 46.2334 43.8727C46.3497 43.5497 46.3195 43.1921 46.1508 42.8931L40.2728 32.695ZM12.3934 52.8668C12.1219 53.0238 11.7992 53.0662 11.4964 52.9849C11.194 52.9063 10.935 52.7111 10.7764 52.4419C10.6194 52.1705 10.577 51.8477 10.6583 51.5449C10.7397 51.2404 10.9395 50.9812 11.2131 50.8249L12.24 50.2347L13.4203 52.2767L12.3934 52.8668ZM28.0446 57.0688C28.1259 56.766 28.0835 56.4432 27.9265 56.1718L25.5777 52.135H25.4833L23.5239 53.2563L25.8846 57.3521C26.2127 57.9098 26.9287 58.0993 27.4898 57.777C27.761 57.6234 27.9604 57.3688 28.0446 57.0688Z" fill="black"/>
</svg>
